# xmcd
#
# Track frame offsets:
#	150
#	13141
#	27080
#	40779
#	54298
#	69013
#
# Disc length: 1151 seconds
#
# Revision: 0
# Processed by: cddbd v1.4PL0 Copyright (c) Steve Scherf et al.
# Submitted via: EasyCDDAExtractor 5.0.5.1
#
DISCID=3c047d06
DTITLE=Peggie Chandler - Lady Karaoke
DYEAR=2002
DGENRE=
TTITLE0=Go Away
TTITLE1=Coal Miner's Daughter
TTITLE2=Rocky Top
TTITLE3=My Guy
TTITLE4=Blue Kentucky Girl
TTITLE5=Silver and Gold
EXTD=
EXTT0=
EXTT1=
EXTT2=
EXTT3=
EXTT4=
EXTT5=
PLAYORDER=
